PathFileType	4	(X/Y/Z)	/Users/niels/Desktop/University/Third Semester/Perception and Action/Exam/Gymnastics Motion Tracking/Code for Gym Tracking/Analyzed Data/Webcam_Backflip/id1_4_baseline_Sports2D/id1_4_baseline_Sports2D_px_person00.trc
DataRate	CameraRate	NumFrames	NumMarkers	Units	OrigDataRate	OrigDataStartFrame	OrigNumFrames
29.87551867219917	29.87551867219917	7	22	m	29.87551867219917	150	241
Frame#	Time	Hip			RHip			RKnee			RAnkle			RBigToe			RSmallToe			RHeel			LHip			LKnee			LAnkle			LBigToe			LSmallToe			LHeel			Neck			Head			Nose			RShoulder			RElbow			RWrist			LShoulder			LElbow			LWrist		
		X1	Y1	Z1	X2	Y2	Z2	X3	Y3	Z3	X4	Y4	Z4	X5	Y5	Z5	X6	Y6	Z6	X7	Y7	Z7	X8	Y8	Z8	X9	Y9	Z9	X10	Y10	Z10	X11	Y11	Z11	X12	Y12	Z12	X13	Y13	Z13	X14	Y14	Z14	X15	Y15	Z15	X16	Y16	Z16	X17	Y17	Z17	X18	Y18	Z18	X19	Y19	Z19	X20	Y20	Z20	X21	Y21	Z21	X22	Y22	Z22
150	5.020833333333333	0.8864498127971089	-0.5934111728754009	0.0	0.8826491111998537	-0.5937912063195512	0.0	0.9272709745353468	-0.6904768898718691	0.0	0.857059754170456	-0.7782275355913936	0.0	0.8793623920390898	-0.8194121977856642	0.0	0.867653372448536	-0.8163828380448591	0.0	0.8400424188731114	-0.7842145176340725	0.0	0.8925251991298726	-0.5936479003764688	0.0	0.9025180256442042	-0.6946551109521366	0.0	0.8984721309931283	-0.8050831955787168	0.0	0.9453053466708413	-0.8191271345814001	0.0	0.9404534310960255	-0.816643913028222	0.0	0.8917654458732942	-0.8179327698864473	0.0	0.9182645690214793	-0.442710734931506	0.0	0.9781584276833665	-0.40109839254787166	0.0	0.9638726140262763	-0.4430788414128198	0.0	0.886168222369722	-0.45124447789397215	0.0	0.8471980906771194	-0.5150764084186562	0.0	0.8625937712983069	-0.5870224205993128	0.0	0.9162301155976571	-0.46300316365937044	0.0	0.9022959868376144	-0.5376974168623897	0.0	0.9356374882209217	-0.5892656456111914	0.0
151	5.054305555555556	0.8864769752312778	-0.5882493801631914	0.0	0.8831755515882656	-0.5883981069324699	0.0	0.9305449838854724	-0.6843518026952343	0.0	0.8698204719019511	-0.7776601507114219	0.0	0.8986464834765264	-0.8145917604625192	0.0	0.8871393846975729	-0.8125811732535948	0.0	0.853647147742311	-0.785823066261101	0.0	0.8919617282264223	-0.5884385920495089	0.0	0.9020906458106106	-0.6896098957323412	0.0	0.8982160967533506	-0.8001652824787195	0.0	0.9457249152305806	-0.8149474846703287	0.0	0.9406695368367317	-0.8122043820050122	0.0	0.8911230194888596	-0.8140124581917663	0.0	0.9195699938265224	-0.43768661627938626	0.0	0.9806848583919503	-0.3962843830524491	0.0	0.9655209602934492	-0.4383582905456706	0.0	0.887483490956592	-0.4455849100839973	0.0	0.8479974882493464	-0.5091159013201438	0.0	0.8642149335359047	-0.5809063482397976	0.0	0.9182560046060654	-0.4581401460274671	0.0	0.9040455221068339	-0.5320224292829844	0.0	0.9371233666889879	-0.5838215667409807	0.0
152	5.087777777777778	0.8867184285736168	-0.5841251870808031	0.0	0.8837628252631397	-0.5839192483169492	0.0	0.9310023099746094	-0.6799191418222978	0.0	0.881479052884921	-0.7795131791593763	0.0	0.9170407353605944	-0.8107894659485029	0.0	0.9059919314047824	-0.8102568856394581	0.0	0.8665874938925789	-0.7905231967800332	0.0	0.8920460656536333	-0.5841067524248401	0.0	0.9021889584867976	-0.6854757988865965	0.0	0.8979956806187086	-0.7959159866021825	0.0	0.9461332488611073	-0.811412969328392	0.0	0.9410033801461588	-0.8085705372512914	0.0	0.8902076497190221	-0.8110063719024945	0.0	0.9205739792895348	-0.4334785916341072	0.0	0.9828689242943917	-0.39199496215038254	0.0	0.9668437229023724	-0.4342901213952866	0.0	0.8885864793116159	-0.4409226485006362	0.0	0.8486083617790766	-0.5041945282736329	0.0	0.865704470259282	-0.5756575405724128	0.0	0.9199224224661722	-0.4539867750118596	0.0	0.9056976194646343	-0.5271068617467599	0.0	0.9379603579031965	-0.5793405488868643	0.0
153	5.12125	0.8875277574624929	-0.5813617149852243	0.0	0.8847150234800341	-0.5807016169356599	0.0	0.9290851686877414	-0.6774467231024272	0.0	0.8908616096694697	-0.7827845282112976	0.0	0.9320437365575189	-0.8082203080823532	0.0	0.9217689901528084	-0.8093586607449498	0.0	0.8774834082611438	-0.7966486389853719	0.0	0.8931627653180644	-0.5809642627190608	0.0	0.9031413081499049	-0.6824083234575398	0.0	0.8980315594268623	-0.7927281642167652	0.0	0.9466686552990412	-0.8088388152952686	0.0	0.9416678310701595	-0.8060860241538642	0.0	0.8894018585075526	-0.8090454223027689	0.0	0.9213107697963107	-0.4304885050813676	0.0	0.9846159715806305	-0.3885411736559618	0.0	0.9678555313551515	-0.43115932536926405	0.0	0.8895674134014265	-0.43769393902414666	0.0	0.8492021841752616	-0.500924161968597	0.0	0.8671161699049892	-0.5719938529970058	0.0	0.9211793608032627	-0.4508796422740202	0.0	0.9072173736342927	-0.5233649522623495	0.0	0.9384907327253796	-0.5760883256013716	0.0
154	5.154722222222222	0.889142836914432	-0.58015591654146	0.0	0.8861872186427322	-0.5790227499224894	0.0	0.9254824638019674	-0.676908759309783	0.0	0.8973059334083322	-0.7866080873372531	0.0	0.9422329102982164	-0.807177502724824	0.0	0.9328707104724018	-0.8098707457606157	0.0	0.8854408792512225	-0.8028290564290781	0.0	0.89552659087797	-0.57927595020643	0.0	0.9050163963911327	-0.6805509560178492	0.0	0.8984661743770301	-0.7909300051348537	0.0	0.9473278430582138	-0.8075694969642161	0.0	0.942609179898253	-0.8050473607332256	0.0	0.889053061128018	-0.8082575056227472	0.0	0.9218269360326318	-0.4289879018134232	0.0	0.9858483135923181	-0.38616128089698876	0.0	0.9685728662881511	-0.42917329457365855	0.0	0.8904627333485353	-0.43622637130583125	0.0	0.8499379144004732	-0.49972649464793395	0.0	0.8685066664896698	-0.5704418813333342	0.0	0.9220439965308543	-0.44910623645103165	0.0	0.9085365397408047	-0.5210954575901864	0.0	0.9390052635428453	-0.5742300077602029	0.0
155	5.188194444444444	0.8915998270135662	-0.5806206616640267	0.0	0.8881882222143802	-0.5790948446768043	0.0	0.9210172343078401	-0.6781443915508728	0.0	0.9008764115360015	-0.7905577229348678	0.0	0.9476755609821523	-0.8078767669715846	0.0	0.9390998512878119	-0.8117696712012669	0.0	0.8903835973970105	-0.8084483938069362	0.0	0.8990387081045359	-0.5792761293466654	0.0	0.9075441569923927	-0.6801300019915633	0.0	0.8992513757728909	-0.7907431086861342	0.0	0.9479573541896229	-0.8078933181046648	0.0	0.9435846752848965	-0.8056405944288768	0.0	0.8892376504844686	-0.8087889548772369	0.0	0.9221996904212827	-0.4290686997046065	0.0	0.986514204028223	-0.3850076531528693	0.0	0.9690157907500937	-0.4284557628561752	0.0	0.8912925406392129	-0.43668614455509636	0.0	0.8509619005592873	-0.5007547894512127	0.0	0.8699550081582185	-0.5712419320374006	0.0	0.9226028465801984	-0.4488491784280972	0.0	0.9096106913904981	-0.520498266419796	0.0	0.9396612742974592	-0.5738574234364839	0.0
156	5.221666666666667	0.8947231667390165	-0.5827614740936283	0.0	0.8906329858534131	-0.5809883683587718	0.0	0.9165460811897173	-0.6809944350816458	0.0	0.9022087442037166	-0.7946273097312225	0.0	0.9495727923364278	-0.8102712645010195	0.0	0.9415279747866016	-0.8148982360383892	0.0	0.8929006313075284	-0.8135159234540035	0.0	0.9032757231485496	-0.5810673637464817	0.0	0.9101594359016945	-0.6814309768838973	0.0	0.9001869255747171	-0.7922704841832113	0.0	0.9484372603437299	-0.8098871308705216	0.0	0.9443976890458251	-0.80783360866942	0.0	0.8897886900325096	-0.8107256269167812	0.0	0.9225333615949829	-0.43064590348053444	0.0	0.9866111832324972	-0.38514400475752153	0.0	0.9692486230434894	-0.42905171438951095	0.0	0.8920901514964998	-0.4390091772983275	0.0	0.8524031405928427	-0.5038715548775163	0.0	0.8715669317772093	-0.5743205228929043	0.0	0.922995675760031	-0.4501282544251134	0.0	0.9104454499052148	-0.5216476851834931	0.0	0.9404505915007101	-0.5749875259666515	0.0
